<?xml version="1.0" encoding="UTF-8" standalone="no"?>
<!-- Generator: Adobe Illustrator 19.0.0, SVG Export Plug-In . SVG Version: 6.00 Build 0)  -->

<svg
   xmlns:dc="http://purl.org/dc/elements/1.1/"
   xmlns:cc="http://creativecommons.org/ns#"
   xmlns:rdf="http://www.w3.org/1999/02/22-rdf-syntax-ns#"
   xmlns:svg="http://www.w3.org/2000/svg"
   xmlns="http://www.w3.org/2000/svg"
   xmlns:sodipodi="http://sodipodi.sourceforge.net/DTD/sodipodi-0.dtd"
   xmlns:inkscape="http://www.inkscape.org/namespaces/inkscape"
   version="1.1"
   id="Layer_1"
   x="0px"
   y="0px"
   viewBox="0 0 512 512"
   style="enable-background:new 0 0 512 512;"
   xml:space="preserve"
   sodipodi:docname="identical.svg"
   inkscape:version="0.92.3 (2405546, 2018-03-11)"><metadata
   id="metadata47"><rdf:RDF><cc:Work
       rdf:about=""><dc:format>image/svg+xml</dc:format><dc:type
         rdf:resource="http://purl.org/dc/dcmitype/StillImage" /></cc:Work></rdf:RDF></metadata><defs
   id="defs45">
	

			
			
		</defs><sodipodi:namedview
   pagecolor="#ffffff"
   bordercolor="#666666"
   borderopacity="1"
   objecttolerance="10"
   gridtolerance="10"
   guidetolerance="10"
   inkscape:pageopacity="0"
   inkscape:pageshadow="2"
   inkscape:window-width="1317"
   inkscape:window-height="713"
   id="namedview43"
   showgrid="false"
   inkscape:zoom="1.3037281"
   inkscape:cx="217.79034"
   inkscape:cy="178.83435"
   inkscape:window-x="1073"
   inkscape:window-y="27"
   inkscape:window-maximized="1"
   inkscape:current-layer="g8"
   showguides="true"
   inkscape:guide-bbox="true"><sodipodi:guide
     position="93.577792,254.65432"
     orientation="1,0"
     id="guide40"
     inkscape:locked="false" /></sodipodi:namedview>
<g
   id="g8"
   transform="matrix(0.63552383,0,0,0.63552383,95.457627,93.972679)">
		<path
   d="M 19.126221,116.95077 H 488.45922 c 11.782,0 21.333,-9.551 21.333,-21.332999 0,-11.781996 -9.551,-21.332996 -21.333,-21.332996 H 19.126221 c -11.7819997,-10e-4 -21.3329997,9.551 -21.3329997,21.332996 0,11.781999 9.551,21.332999 21.3329997,21.332999 z"
   id="path2"
   inkscape:connector-curvature="0" /><path
   d="M 488.46022,238.65675 H 19.126221 c -11.7819997,0 -21.3329997,9.551 -21.3329997,21.333 0,11.782 9.551,21.333 21.3329997,21.333 H 488.45922 c 11.782,0 21.333,-9.551 21.333,-21.333 0.001,-11.782 -9.55,-21.333 -21.332,-21.333 z"
   id="path4"
   inkscape:connector-curvature="0" />
	<path
   style="stroke-width:1"
   d="M 488.07451,392.23385 H 18.740519 c -11.7819997,0 -21.3329997,9.551 -21.3329997,21.333 0,11.782 9.551,21.333 21.3329997,21.333 H 488.07352 c 11.782,0 21.333,-9.551 21.333,-21.333 9.9e-4,-11.782 -9.55001,-21.333 -21.33201,-21.333 z"
   id="path4-3"
   inkscape:connector-curvature="0" /></g>
<g
   id="g12">
</g>
<g
   id="g14">
</g>
<g
   id="g16">
</g>
<g
   id="g18">
</g>
<g
   id="g20">
</g>
<g
   id="g22">
</g>
<g
   id="g24">
</g>
<g
   id="g26">
</g>
<g
   id="g28">
</g>
<g
   id="g30">
</g>
<g
   id="g32">
</g>
<g
   id="g34">
</g>
<g
   id="g36">
</g>
<g
   id="g38">
</g>
<g
   id="g40">
</g>
</svg>