<?xml version="1.0" encoding="UTF-8" standalone="no"?>
<!-- Generator: Adobe Illustrator 19.0.0, SVG Export Plug-In . SVG Version: 6.00 Build 0)  -->

<svg
   xmlns:dc="http://purl.org/dc/elements/1.1/"
   xmlns:cc="http://creativecommons.org/ns#"
   xmlns:rdf="http://www.w3.org/1999/02/22-rdf-syntax-ns#"
   xmlns:svg="http://www.w3.org/2000/svg"
   xmlns="http://www.w3.org/2000/svg"
   xmlns:sodipodi="http://sodipodi.sourceforge.net/DTD/sodipodi-0.dtd"
   xmlns:inkscape="http://www.inkscape.org/namespaces/inkscape"
   version="1.1"
   id="Layer_1"
   x="0px"
   y="0px"
   viewBox="0 0 512 512"
   style="enable-background:new 0 0 512 512;"
   xml:space="preserve"
   sodipodi:docname="notequal.svg"
   inkscape:version="0.92.3 (2405546, 2018-03-11)"><metadata
   id="metadata47"><rdf:RDF><cc:Work
       rdf:about=""><dc:format>image/svg+xml</dc:format><dc:type
         rdf:resource="http://purl.org/dc/dcmitype/StillImage" /></cc:Work></rdf:RDF></metadata><defs
   id="defs45">
	

			
			
		</defs><sodipodi:namedview
   pagecolor="#ffffff"
   bordercolor="#666666"
   borderopacity="1"
   objecttolerance="10"
   gridtolerance="10"
   guidetolerance="10"
   inkscape:pageopacity="0"
   inkscape:pageshadow="2"
   inkscape:window-width="1317"
   inkscape:window-height="713"
   id="namedview43"
   showgrid="false"
   inkscape:zoom="0.4609375"
   inkscape:cx="-138.84746"
   inkscape:cy="256"
   inkscape:window-x="1073"
   inkscape:window-y="27"
   inkscape:window-maximized="1"
   inkscape:current-layer="g8" />
<g
   id="g8"
   transform="matrix(0.63552383,0,0,0.63552383,95.457627,93.972679)">
		<path
   d="m 21.333,192 h 469.333 c 11.782,0 21.333,-9.551 21.333,-21.333 0,-11.782 -9.551,-21.333 -21.333,-21.333 H 21.333 C 9.551,149.333 0,158.885 0,170.667 0,182.449 9.551,192 21.333,192 Z"
   id="path2"
   inkscape:connector-curvature="0" /><path
   d="M 490.667,320 H 21.333 C 9.551,320 0,329.551 0,341.333 c 0,11.782 9.551,21.333 21.333,21.333 h 469.333 c 11.782,0 21.333,-9.551 21.333,-21.333 C 512,329.551 502.449,320 490.667,320 Z"
   id="path4"
   inkscape:connector-curvature="0" />
	<path
   style="stroke-width:1"
   d="M 360.20828,43.688014 102.5332,435.96079 c -6.468576,9.84748 -3.729496,23.07404 6.11798,29.54257 9.84747,6.4686 23.07396,3.72948 29.54259,-6.11793 L 395.86835,67.113432 c 6.46853,-9.847486 3.72946,-23.07399 -6.11804,-29.542566 -9.84691,-6.469435 -23.07347,-3.730357 -29.54203,6.117148 z"
   id="path4-3"
   inkscape:connector-curvature="0" /></g>
<g
   id="g12">
</g>
<g
   id="g14">
</g>
<g
   id="g16">
</g>
<g
   id="g18">
</g>
<g
   id="g20">
</g>
<g
   id="g22">
</g>
<g
   id="g24">
</g>
<g
   id="g26">
</g>
<g
   id="g28">
</g>
<g
   id="g30">
</g>
<g
   id="g32">
</g>
<g
   id="g34">
</g>
<g
   id="g36">
</g>
<g
   id="g38">
</g>
<g
   id="g40">
</g>
</svg>